<svg xmlns="http://www.w3.org/2000/svg" xmlns:xlink="http://www.w3.org/1999/xlink" width="1080" zoomAndPan="magnify" viewBox="0 0 810 1020" height="1350" preserveAspectRatio="xMidYMid meet" version="1.0"><path fill="#7ed008" d="M 810 464.023438 C 810 240.671875 628.351562 59.023438 405 59.023438 C 181.648438 59.023438 0 240.671875 0 464.023438 C 0 687.378906 181.648438 869.023438 405 869.023438 C 628.351562 869.023438 810 687.292969 810 464.023438 Z M 446.621094 481.257812 L 775.101562 481.257812 C 770.964844 570.445312 735.203125 651.53125 678.761719 713.402344 Z M 775.101562 446.789062 L 422.234375 446.789062 L 422.234375 93.921875 C 612.84375 102.714844 766.3125 256.183594 775.101562 446.789062 Z M 34.46875 464.023438 C 34.46875 265.488281 191.382812 102.972656 387.765625 93.921875 C 387.765625 476.089844 384.578125 467.988281 392.851562 476.175781 L 654.460938 737.789062 C 418.269531 953.125 34.46875 786.042969 34.46875 464.023438 Z M 34.46875 464.023438 " fill-opacity="1" fill-rule="nonzero"/></svg>