<svg xmlns="http://www.w3.org/2000/svg" xmlns:xlink="http://www.w3.org/1999/xlink" width="1080" zoomAndPan="magnify" viewBox="0 0 810 1020" height="1350" preserveAspectRatio="xMidYMid meet" version="1.0"><defs><clipPath id="01dca8f27b"><path d="M 0 101.25 L 810 101.25 L 810 911 L 0 911 Z M 0 101.25 " clip-rule="nonzero"/></clipPath></defs><path fill="#7ed008" d="M 405 267.839844 C 328.589844 267.839844 266.21875 329.9375 266.21875 406.347656 C 266.21875 483.03125 328.589844 545.128906 405 545.128906 C 481.410156 545.128906 543.78125 483.03125 543.78125 406.347656 C 543.78125 329.9375 481.410156 267.839844 405 267.839844 Z M 405 267.839844 " fill-opacity="1" fill-rule="nonzero"/><g clip-path="url(#01dca8f27b)"><path fill="#7ed008" d="M 404.730469 101.519531 C 181.710938 101.519531 0 282.960938 0 506.25 C 0 630.449219 56.429688 741.6875 144.71875 815.9375 C 144.71875 815.9375 144.71875 815.9375 144.71875 816.210938 C 215.191406 875.339844 305.910156 910.980469 404.730469 910.980469 C 545.671875 910.980469 674.191406 839.699219 748.710938 720.089844 C 788.941406 655.828125 810 582.121094 810 506.25 C 810 430.378906 788.941406 356.398438 748.710938 292.410156 C 674.191406 172.800781 545.671875 101.519531 404.730469 101.519531 Z M 703.082031 691.46875 C 690.121094 712.261719 675 730.621094 658.53125 747.898438 C 617.488281 663.660156 530.28125 607.5 433.890625 607.5 L 376.109375 607.5 C 309.152344 607.5 246.238281 633.6875 198.988281 680.9375 C 179.28125 700.378906 163.621094 723.328125 151.46875 748.167969 C 91.261719 685.261719 54 600.210938 54 506.25 C 54 312.929688 211.410156 155.519531 404.730469 155.519531 C 527.039062 155.519531 638.28125 217.351562 703.082031 321.03125 C 737.640625 376.648438 756 440.640625 756 506.25 C 756 571.859375 737.640625 635.851562 703.082031 691.46875 Z M 703.082031 691.46875 " fill-opacity="1" fill-rule="nonzero"/></g></svg>