<svg xmlns="http://www.w3.org/2000/svg" xmlns:xlink="http://www.w3.org/1999/xlink" width="1080" zoomAndPan="magnify" viewBox="0 0 810 1020" height="1350" preserveAspectRatio="xMidYMid meet" version="1.0"><path fill="#7ed008" d="M 583.5625 568.683594 C 577.925781 522.269531 554.027344 486.03125 512.527344 460.976562 C 486.941406 445.527344 455.8125 435.179688 414.558594 428.40625 C 391.554688 424.628906 374.902344 419.222656 363.644531 411.875 C 355.929688 406.835938 352.472656 401.316406 352.089844 393.410156 C 351.609375 383.550781 355.453125 375.226562 363.503906 368.679688 C 370.53125 362.96875 379.839844 358.820312 390.433594 356.691406 C 394.484375 355.875 398.660156 355.382812 402.847656 355.222656 C 404.523438 355.289062 406.207031 355.28125 407.886719 355.195312 C 413.648438 355.347656 419.332031 356.125 424.796875 357.511719 C 443.578125 362.269531 457.457031 374.195312 464.925781 391.988281 C 477.097656 420.992188 510.59375 434.683594 539.589844 422.519531 C 553.59375 416.648438 564.488281 405.628906 570.269531 391.488281 C 576.054688 377.347656 576 361.847656 570.125 347.847656 C 549.867188 299.585938 511.75 265.019531 462.085938 249.617188 L 462.085938 244.199219 C 462.082031 212.742188 436.492188 187.148438 405.03125 187.148438 C 373.574219 187.148438 347.980469 212.742188 347.980469 244.203125 L 347.980469 250.285156 C 327.03125 256.972656 307.71875 267.25 291.652344 280.3125 C 281.695312 288.40625 272.917969 297.527344 265.5625 307.425781 C 246.097656 333.609375 236.671875 365.21875 238.300781 398.839844 C 240.535156 444.902344 261.804688 481.40625 301.519531 507.332031 C 326.265625 523.488281 357.234375 534.449219 396.199219 540.84375 C 412.707031 543.554688 436.621094 548.347656 453.636719 558.617188 C 463.953125 564.847656 469.101562 572.125 470.324219 582.214844 L 470.394531 582.800781 C 470.519531 583.789062 470.65625 584.910156 470.671875 585.570312 C 470.773438 589.8125 469.890625 595.433594 462.113281 601.335938 C 452.652344 608.511719 437.445312 613.816406 420.382812 615.882812 C 416.835938 616.316406 412.6875 616.765625 408.816406 616.832031 L 408.484375 616.839844 C 406.398438 616.714844 404.371094 616.699219 402.351562 616.796875 C 385.675781 616.195312 370.058594 611.574219 358.332031 603.765625 C 347.621094 596.632812 340.703125 587 337.761719 575.144531 C 334.078125 560.269531 324.808594 547.746094 311.664062 539.886719 C 298.707031 532.140625 283.5 529.859375 268.839844 533.464844 C 253.894531 537.140625 241.332031 546.449219 233.460938 559.675781 C 225.753906 572.628906 223.507812 587.816406 227.132812 602.445312 C 237.03125 642.308594 260.609375 675.601562 295.316406 698.714844 C 311.125 709.242188 328.796875 717.300781 347.976562 722.738281 L 347.976562 727.800781 C 347.976562 759.261719 373.570312 784.855469 405.03125 784.855469 C 436.492188 784.855469 462.082031 759.257812 462.082031 727.796875 L 462.082031 723.910156 C 488.253906 717.351562 511.871094 706.417969 530.882812 691.988281 C 567.007812 664.582031 585.546875 626.851562 584.5 582.878906 C 584.371094 577.394531 584.070312 572.882812 583.5625 568.683594 Z M 515.09375 671.171875 C 496.691406 685.136719 472.953125 695.332031 446.445312 700.660156 C 440.34375 701.882812 435.953125 707.246094 435.953125 713.46875 L 435.953125 727.796875 C 435.953125 744.847656 422.082031 758.722656 405.03125 758.722656 C 387.980469 758.722656 374.105469 744.851562 374.105469 727.800781 L 374.105469 712.601562 C 374.105469 706.511719 369.902344 701.230469 363.964844 699.871094 C 343.941406 695.273438 325.714844 687.566406 309.800781 676.96875 C 280.609375 657.527344 260.792969 629.578125 252.496094 596.148438 C 250.535156 588.246094 251.75 580.039062 255.921875 573.03125 C 260.179688 565.867188 266.988281 560.824219 275.078125 558.835938 C 277.535156 558.230469 280.023438 557.933594 282.492188 557.933594 C 287.996094 557.933594 293.417969 559.417969 298.257812 562.3125 C 305.382812 566.570312 310.40625 573.359375 312.402344 581.425781 C 316.894531 599.558594 327.765625 614.800781 343.847656 625.511719 C 364.175781 639.046875 386.730469 642.457031 402.070312 642.933594 C 402.457031 642.945312 402.847656 642.9375 403.234375 642.917969 C 404.542969 642.839844 405.847656 642.84375 407.234375 642.945312 C 407.625 642.972656 408.015625 642.980469 408.40625 642.976562 L 409.285156 642.960938 C 414.339844 642.867188 419.324219 642.335938 423.53125 641.824219 C 436.175781 640.289062 460.054688 635.695312 477.90625 622.152344 C 490.613281 612.511719 497.144531 599.648438 496.792969 584.957031 C 496.746094 583 496.515625 581.113281 496.328125 579.597656 L 496.261719 579.066406 C 494.070312 561 484.277344 546.59375 467.140625 536.25 C 446.265625 523.648438 419.070312 518.121094 400.429688 515.058594 C 365.128906 509.265625 337.445312 499.578125 315.800781 485.449219 C 283.5 464.363281 266.207031 434.796875 264.398438 397.570312 C 263.0625 370.066406 270.714844 344.285156 286.527344 323.011719 C 292.59375 314.859375 299.863281 307.3125 308.136719 300.589844 C 323.789062 287.859375 343.21875 278.230469 364.332031 272.742188 C 370.089844 271.246094 374.109375 266.050781 374.109375 260.101562 L 374.109375 244.207031 C 374.109375 227.15625 387.980469 213.28125 405.03125 213.28125 C 422.082031 213.28125 435.957031 227.152344 435.957031 244.207031 L 435.957031 259.519531 C 435.957031 265.472656 439.976562 270.667969 445.738281 272.164062 L 446.175781 272.277344 C 492.28125 283.964844 527.746094 314.394531 546.035156 357.96875 C 549.210938 365.53125 549.230469 373.925781 546.089844 381.601562 C 542.949219 389.28125 537.054688 395.257812 529.488281 398.433594 C 513.773438 405.023438 495.617188 397.601562 489.019531 381.882812 C 478.40625 356.59375 457.878906 338.945312 431.21875 332.1875 C 423.683594 330.277344 415.851562 329.226562 407.949219 329.066406 C 407.589844 329.058594 407.230469 329.0625 406.875 329.089844 C 405.773438 329.152344 404.664062 329.160156 403.5625 329.105469 C 403.207031 329.089844 402.855469 329.085938 402.503906 329.097656 C 396.703125 329.28125 390.90625 329.949219 385.285156 331.082031 C 370.554688 334.046875 357.328125 340.035156 347.027344 348.410156 C 332.589844 360.152344 325.117188 376.585938 325.996094 394.683594 C 326.789062 411.003906 334.652344 424.152344 349.371094 433.761719 C 363.730469 443.132812 383.671875 449.816406 410.332031 454.195312 C 448.199219 460.414062 476.382812 469.675781 499.03125 483.347656 C 533.78125 504.328125 552.949219 533.273438 557.628906 571.839844 C 558.035156 575.179688 558.277344 578.886719 558.386719 583.507812 C 559.21875 618.730469 544.25 649.050781 515.09375 671.171875 Z M 405 81 C 181.683594 81 0 262.683594 0 486 C 0 709.316406 181.683594 891 405 891 C 628.316406 891 810 709.316406 810 486 C 810 262.683594 628.316406 81 405 81 Z M 405 864.871094 C 196.089844 864.871094 26.128906 694.910156 26.128906 486 C 26.128906 277.089844 196.089844 107.128906 405 107.128906 C 613.910156 107.128906 783.871094 277.089844 783.871094 486 C 783.871094 694.910156 613.910156 864.871094 405 864.871094 Z M 405 864.871094 " fill-opacity="1" fill-rule="nonzero"/></svg>