<svg xmlns="http://www.w3.org/2000/svg" xmlns:xlink="http://www.w3.org/1999/xlink" width="1080" zoomAndPan="magnify" viewBox="0 0 810 1020" height="1350" preserveAspectRatio="xMidYMid meet" version="1.0"><defs><clipPath id="67951bd32f"><path d="M 0 81 L 810 81 L 810 888.75 L 0 888.75 Z M 0 81 " clip-rule="nonzero"/></clipPath></defs><g clip-path="url(#67951bd32f)"><path fill="#7ed008" d="M 695.0625 316.070312 L 809.878906 201.257812 L 701.695312 189.371094 L 689.820312 81.1875 L 575 196 L 583.003906 268.898438 L 564.367188 287.53125 C 504.527344 236 427.113281 204.398438 342.121094 204.398438 C 153.429688 204.398438 -0.0703125 357.90625 -0.0703125 546.585938 C -0.0703125 735.273438 153.429688 888.785156 342.121094 888.785156 C 530.808594 888.785156 684.308594 735.273438 684.308594 546.585938 C 684.308594 479.121094 664.421875 416.328125 630.582031 363.265625 L 570.15625 423.691406 C 589.957031 460.285156 601.226562 502.144531 601.226562 546.585938 C 601.226562 689.460938 484.996094 805.703125 342.121094 805.703125 C 199.246094 805.703125 83.011719 689.460938 83.011719 546.585938 C 83.011719 403.71875 199.246094 287.480469 342.121094 287.480469 C 404.203125 287.480469 460.9375 309.753906 505.566406 346.332031 L 462.890625 389.003906 C 429.386719 363.257812 387.546875 347.855469 342.121094 347.855469 C 232.535156 347.855469 143.367188 437.003906 143.367188 546.585938 C 143.367188 656.175781 232.535156 745.324219 342.121094 745.324219 C 451.703125 745.324219 540.84375 656.175781 540.84375 546.585938 C 540.84375 519.019531 535.175781 492.753906 524.988281 468.859375 L 456.796875 537.050781 C 457.066406 540.25 457.761719 543.320312 457.761719 546.585938 C 457.761719 610.363281 405.890625 662.25 342.121094 662.25 C 278.351562 662.25 226.449219 610.363281 226.449219 546.585938 C 226.449219 482.816406 278.351562 430.9375 342.121094 430.9375 C 364.59375 430.9375 385.414062 437.589844 403.128906 448.769531 L 359.882812 492.007812 C 354.257812 490.175781 348.363281 488.925781 342.121094 488.925781 C 310.273438 488.925781 284.453125 514.746094 284.453125 546.585938 C 284.453125 578.433594 310.273438 604.246094 342.121094 604.246094 C 373.960938 604.246094 399.78125 578.433594 399.78125 546.585938 C 399.78125 541.664062 398.972656 536.96875 397.8125 532.40625 L 622.160156 308.054688 L 695.0625 316.070312 " fill-opacity="1" fill-rule="nonzero"/></g></svg>